<svg id="Group_1_copy" data-name="Group 1 copy" xmlns="http://www.w3.org/2000/svg" width="500" height="500" viewBox="0 0 500 500">
  <defs>
    <style>
      .cls-1, .cls-2 {
        fill: none;
        stroke: #fff;
        stroke-linejoin: round;
        stroke-width: 12px;
        fill-rule: evenodd;
      }

      .cls-1 {
        stroke-linecap: round;
      }
    </style>
  </defs>
  <path class="cls-1" d="M250,162h-1V59h1V162Z"/>
  <path id="Shape_1_copy" data-name="Shape 1 copy" class="cls-2" d="M345.317,324.933l0.5-.866,86.866,50-0.5.866Z"/>
  <path id="Shape_1_copy_2" data-name="Shape 1 copy 2" class="cls-2" d="M154.183,324.067l0.5,0.866-85.866,50-0.5-.866Z"/>
  <path class="cls-2" d="M250.247,382.435l-0.494-.87,95-55,0.494,0.87ZM346,327h-1V217h1V327Z"/>
  <path class="cls-2" d="M345.254,215.569l-0.508.862-95-56,0.508-.862Z"/>
  <path class="cls-2" d="M249.745,159.57l0.51,0.86-96,57-0.51-.86Z"/>
  <path class="cls-2" d="M153.755,218.436l0.49-.872,96,54-0.49.872Z"/>
  <path class="cls-2" d="M250.247,271.435l-0.494-.87,95-54,0.494,0.87Z"/>
  <path class="cls-2" d="M249,270h1V382h-1V270Z"/>
  <path class="cls-2" d="M250.252,381.568l-0.5.864-96-56,0.5-.864Z"/>
  <path class="cls-2" d="M154,325h-1V217h1V325Z"/>
</svg>
